<?xml version="1.0" encoding="utf-8"?>
<!-- Generator: Adobe Illustrator 27.0.0, SVG Export Plug-In . SVG Version: 6.00 Build 0)  -->
<svg version="1.1" id="Capa_1" xmlns="http://www.w3.org/2000/svg" xmlns:xlink="http://www.w3.org/1999/xlink" x="0px" y="0px"
	 viewBox="0 0 500 295" style="enable-background:new 0 0 500 295;" xml:space="preserve">
<style type="text/css">
	.st0{fill:#070C1F;}
	.st1{fill:#17CF17;}
	.st2{fill:#45D945;}
	.st3{fill:#74E274;}
	.st4{fill:#A2ECA2;}
	.st5{fill:#D1F5D1;}
	.st6{fill:#FFFFFF;}
	.st7{fill:#000926;}
	.st8{fill:#053123;}
	.st9{fill:#095820;}
	.st10{fill:#0E801D;}
	.st11{fill:#12A71A;}
	.st12{fill:#FFD400;}
	.st13{fill:#2CFF00;}
	.st14{fill:#00F3FF;}
	.st15{fill:#0000FF;}
	.st16{fill:#CE03FF;}
	.st17{fill:#FF0025;}
	.st18{fill:#606060;}
</style>
<g>
	<g>
		<g>
			<path class="st1" d="M18.03,293.76c-9.12,0-11.79-2.81-11.79-10.61v-9.7c0-7.8,2.68-10.61,11.79-10.61h11.75
				c9.16,0,11.84,2.81,11.84,10.61v9.7c0,7.8-2.68,10.61-11.84,10.61H18.03z M34.72,273.76c0-3.85-1.18-4.99-5.22-4.99H18.35
				c-4.35,0-5.26,1.13-5.26,4.99v9.12c0,4.04,0.91,4.99,5.26,4.99H29.5c4.04,0,5.22-0.95,5.22-4.99V273.76z"/>
			<path class="st1" d="M80.7,282.15v11.61h-6.85v-20.32c0-7.8,2.67-10.61,11.79-10.61h7.26v5.94h-7.08c-3.76,0-5.12,1.45-5.12,5.08
				v2.45h26.08v5.85H80.7z"/>
			<path class="st1" d="M144.46,282.15v11.61h-6.84v-20.32c0-7.8,2.68-10.61,11.79-10.61h7.26v5.94h-7.08
				c-3.77,0-5.13,1.45-5.13,5.08v2.45h26.08v5.85H144.46z"/>
			<path class="st1" d="M201.55,293.76v-30.93h6.89v30.93H201.55z"/>
			<path class="st1" d="M252.68,293.76c-9.11,0-11.79-2.81-11.79-10.61v-9.7c0-7.8,2.68-10.61,11.79-10.61h21.45v5.94H253
				c-4.22,0-5.26,1.22-5.26,5.03v9.07c0,3.85,1.04,4.99,5.31,4.99h21.09v5.9H252.68z"/>
			<path class="st1" d="M317.39,293.76c-9.11,0-11.79-2.81-11.79-10.61v-9.7c0-7.8,2.68-10.61,11.79-10.61h7.62v5.85h-7.62
				c-3.99,0-4.95,1.18-4.95,4.76v2.09h26.35v5.49h-26.35v2.18c0,3.72,0.91,4.72,4.95,4.72h21.59v5.85H317.39z"/>
		</g>
	</g>
	<g>
		<circle class="st6" cx="396.12" cy="205.35" r="4.39"/>
		<circle class="st5" cx="413.31" cy="205.13" r="6.1"/>
		<circle class="st4" cx="430.49" cy="204.91" r="7.82"/>
		<circle class="st3" cx="447.68" cy="204.69" r="9.53"/>
		<circle class="st2" cx="464.86" cy="204.47" r="11.24"/>
		<circle class="st1" cx="482.05" cy="204.24" r="12.95"/>
	</g>
	<g>
		<circle class="st6" cx="387.54" cy="169.68" r="4.39"/>
		<circle class="st5" cx="403.44" cy="162.97" r="6.1"/>
		<circle class="st4" cx="419.33" cy="156.26" r="7.82"/>
		<circle class="st3" cx="435.22" cy="149.55" r="9.53"/>
		<circle class="st2" cx="451.12" cy="142.83" r="11.24"/>
		<circle class="st1" cx="467.01" cy="136.12" r="12.95"/>
	</g>
	<g>
		<circle class="st6" cx="363.12" cy="133.12" r="4.39"/>
		<circle class="st5" cx="375.33" cy="120.9" r="6.1"/>
		<circle class="st4" cx="387.55" cy="108.69" r="7.82"/>
		<circle class="st3" cx="399.76" cy="96.47" r="9.53"/>
		<circle class="st2" cx="411.98" cy="84.26" r="11.24"/>
		<circle class="st1" cx="424.2" cy="72.04" r="12.95"/>
	</g>
	<g>
		<circle class="st6" cx="326.55" cy="108.69" r="4.39"/>
		<circle class="st5" cx="333.27" cy="92.8" r="6.1"/>
		<circle class="st4" cx="339.98" cy="76.91" r="7.82"/>
		<circle class="st3" cx="346.69" cy="61.01" r="9.53"/>
		<circle class="st2" cx="353.4" cy="45.12" r="11.24"/>
		<circle class="st1" cx="360.12" cy="29.23" r="12.95"/>
	</g>
	<g>
		<circle class="st6" cx="290.88" cy="100.11" r="4.39"/>
		<circle class="st5" cx="291.11" cy="82.93" r="6.1"/>
		<circle class="st4" cx="291.33" cy="65.74" r="7.82"/>
		<circle class="st3" cx="291.55" cy="48.56" r="9.53"/>
		<circle class="st2" cx="291.77" cy="31.37" r="11.24"/>
		<circle class="st1" cx="291.99" cy="14.19" r="12.95"/>
	</g>
	<g>
		<path class="st6" d="M5,248.24V133.48h20.05v94.72h77.19v20.05H5z"/>
		<path class="st6" d="M116.62,248.24V133.48h102.46v20.05h-82.57v74.67h82.72v20.05H116.62z M151.19,198.36v-16.89h63.62v16.89
			H151.19z"/>
		<path class="st6" d="M236.45,248.24V133.48h66.46c32.36,0,55.88,22.89,55.88,56.2c0,33.31-23.53,58.57-55.88,58.57H236.45z
			 M302.91,228.2c20.68,0,35.83-15.94,35.83-37.57s-15.15-37.1-35.83-37.1h-46.57v74.67H302.91z"/>
	</g>
</g>
</svg>
